<svg width="1200" height="350" viewBox="0 0 1200 350" fill="none" xmlns="http://www.w3.org/2000/svg">
<path d="M477.1 104.6V115.2H431.5V235.2H419.1V115.2H373.7V104.6H477.1Z" fill="black"/>
<path d="M463.7 155.4C465.7 151.4 468.3 148.1 471.7 145.5C475.1 142.9 479 141 483.5 139.8C488 138.6 493 138 498.5 138C502.6 138 506.8 138.4 510.9 139.2C515 140 518.8 141.5 522.1 143.7C525.4 145.9 528.1 149 530.2 152.9C532.3 156.9 533.3 162 533.3 168.4V218.5C533.3 223.1 535.6 225.5 540.1 225.5C541.4 225.5 542.7 225.3 543.8 224.8V234.5C542.5 234.7 541.3 234.9 540.2 235C539.2 235.1 537.8 235.2 536.3 235.2C533.4 235.2 531 234.8 529.3 234C527.5 233.2 526.2 232.1 525.2 230.6C524.2 229.1 523.6 227.4 523.3 225.4C523 223.4 522.8 221.2 522.8 218.7H522.4C520.3 221.8 518.2 224.5 516.1 226.8C514 229.2 511.6 231.2 509 232.7C506.4 234.3 503.4 235.5 500 236.4C496.6 237.3 492.6 237.7 488 237.7C483.6 237.7 479.5 237.2 475.6 236.1C471.8 235.1 468.4 233.4 465.5 231.2C462.6 228.9 460.4 226.1 458.7 222.6C457.1 219.1 456.2 215 456.2 210.2C456.2 203.6 457.7 198.5 460.6 194.7C463.5 191 467.4 188.1 472.2 186.2C477 184.2 482.4 182.9 488.5 182.1C494.5 181.3 500.7 180.5 506.9 179.8C509.3 179.6 511.5 179.3 513.3 178.9C515.1 178.5 516.7 177.9 517.9 177C519.1 176.1 520.1 174.8 520.7 173.2C521.4 171.6 521.7 169.5 521.7 167C521.7 163.1 521.1 159.9 519.8 157.4C518.5 154.9 516.7 152.9 514.5 151.5C512.2 150 509.6 149 506.6 148.5C503.6 148 500.4 147.7 497 147.7C489.7 147.7 483.7 149.4 479.1 152.9C474.5 156.4 472 162 471.8 169.6H460.3C460.6 164.2 461.8 159.5 463.7 155.4ZM521.4 183.6C520.7 184.9 519.3 185.9 517.2 186.5C515.1 187.1 513.3 187.5 511.7 187.8C506.8 188.7 501.8 189.4 496.6 190.1C491.4 190.8 486.7 191.8 482.4 193.1C478.1 194.4 474.6 196.4 471.9 198.9C469.2 201.4 467.8 205 467.8 209.6C467.8 212.5 468.4 215.1 469.5 217.4C470.7 219.7 472.2 221.6 474.2 223.3C476.2 224.9 478.4 226.2 481 227.1C483.6 228 486.2 228.4 488.9 228.4C493.3 228.4 497.5 227.7 501.5 226.4C505.5 225.1 509 223.1 512 220.5C515 217.9 517.4 214.8 519.1 211.2C520.9 207.5 521.8 203.4 521.8 198.8V183.8H521.4V183.6Z" fill="black"/>
<path d="M561.4 140.8V158.7H561.8C564.5 152.1 568.8 147 574.9 143.4C580.9 139.8 587.8 138 595.5 138C602.7 138 609 139.3 614.3 142C619.6 144.7 624 148.3 627.6 152.9C631.1 157.5 633.8 162.8 635.5 168.8C637.2 174.8 638.1 181.2 638.1 187.9C638.1 194.6 637.2 201 635.5 207C633.8 213 631.2 218.3 627.6 222.9C624.1 227.5 619.6 231.1 614.3 233.7C609 236.3 602.7 237.6 595.5 237.6C592.1 237.6 588.7 237.2 585.3 236.3C581.9 235.4 578.7 234.2 575.8 232.5C572.9 230.8 570.3 228.7 568 226.1C565.7 223.5 564 220.6 562.8 217.1H562.4V270H550.9V140.8H561.4ZM624.7 173.5C623.5 168.7 621.7 164.4 619.2 160.6C616.7 156.8 613.5 153.7 609.6 151.4C605.7 149 601 147.8 595.5 147.8C589.2 147.8 583.8 148.9 579.6 151.1C575.3 153.3 571.9 156.2 569.4 159.9C566.8 163.6 565 167.8 564 172.7C563 177.6 562.4 182.7 562.4 188.1C562.4 193 563 197.8 564.1 202.6C565.3 207.4 567.1 211.7 569.8 215.5C572.4 219.3 575.8 222.4 580 224.7C584.2 227.1 589.4 228.3 595.5 228.3C601 228.3 605.7 227.1 609.6 224.7C613.5 222.3 616.7 219.2 619.2 215.5C621.7 211.7 623.5 207.4 624.7 202.6C625.9 197.8 626.4 192.9 626.4 188.1C626.4 183.1 625.8 178.3 624.7 173.5Z" fill="black"/>
<path d="M658.9 204C660.1 208.5 661.9 212.4 664.5 216C667.1 219.5 670.3 222.5 674.2 224.8C678.1 227.1 682.8 228.3 688.3 228.3C696.7 228.3 703.3 226.1 708.1 221.7C712.9 217.3 716.2 211.5 718 204.1H729.5C727.1 214.8 722.6 223.1 716 229C709.5 234.9 700.2 237.8 688.3 237.8C680.9 237.8 674.4 236.5 669 233.9C663.6 231.3 659.1 227.7 655.7 223.1C652.3 218.5 649.8 213.2 648.1 207.2C646.5 201.2 645.6 194.8 645.6 188.1C645.6 181.9 646.4 175.8 648.1 169.8C649.7 163.8 652.3 158.5 655.7 153.8C659.1 149.1 663.5 145.3 669 142.5C674.4 139.6 680.9 138.2 688.3 138.2C695.9 138.2 702.3 139.7 707.7 142.8C713.1 145.9 717.4 149.8 720.8 154.8C724.2 159.7 726.6 165.4 728 171.8C729.5 178.2 730.1 184.7 729.8 191.3H657.1C657.1 195.3 657.7 199.6 658.9 204ZM716 168.8C714.6 164.8 712.6 161.2 710.1 158.1C707.5 155 704.4 152.5 700.8 150.6C697.1 148.7 693 147.8 688.4 147.8C683.6 147.8 679.4 148.7 675.8 150.6C672.1 152.5 669 155 666.5 158.1C663.9 161.2 661.9 164.8 660.4 168.9C658.9 173 657.9 177.2 657.4 181.4H718.5C718.1 177 717.4 172.8 716 168.8Z" fill="black"/>
<path d="M794.2 104.6L845.4 235.3H832L816.1 194.7H756.6L740.9 235.3H727.7L780.2 104.6H794.2ZM812 184L786.7 117L760.5 184H812Z" fill="black"/>
<path d="M942 130.6C939.5 126.6 936.4 123.3 932.8 120.6C929.2 117.9 925.2 115.9 920.9 114.5C916.6 113.1 912 112.4 907.3 112.4C898.6 112.4 891.2 114 885 117.3C878.8 120.6 873.7 125 869.7 130.4C865.7 135.8 862.8 142 860.9 148.8C859 155.6 858.1 162.6 858.1 169.8C858.1 176.9 859 183.9 860.9 190.8C862.8 197.7 865.7 203.9 869.7 209.3C873.7 214.7 878.8 219.1 885 222.4C891.2 225.7 898.7 227.3 907.3 227.3C913.4 227.3 918.9 226.2 923.8 224C928.7 221.8 932.9 218.8 936.4 215C939.9 211.2 942.8 206.8 945 201.7C947.2 196.6 948.6 191.2 949.2 185.3H961.6C960.7 193.4 958.9 200.6 955.9 207.1C953 213.6 949.2 219.1 944.6 223.6C940 228.1 934.5 231.6 928.2 234C921.9 236.4 914.9 237.7 907.2 237.7C897 237.7 888 235.8 880.2 232.1C872.5 228.4 866 223.4 860.9 217.2C855.8 211 851.9 203.8 849.4 195.6C846.8 187.4 845.6 178.8 845.6 169.8C845.6 160.8 846.9 152.2 849.4 144C852 135.8 855.8 128.6 860.9 122.3C866 116 872.5 111 880.2 107.3C887.9 103.6 896.9 101.7 907.2 101.7C913.4 101.7 919.5 102.6 925.4 104.4C931.3 106.2 936.7 108.9 941.5 112.5C946.3 116.1 950.3 120.5 953.6 125.8C956.8 131 958.9 137.1 959.7 143.9H947.3C946.3 139.1 944.5 134.6 942 130.6Z" fill="black"/>
<path d="M975.4 155.4C977.4 151.4 980 148.1 983.4 145.5C986.8 142.9 990.7 141 995.2 139.8C999.7 138.6 1004.7 138 1010.2 138C1014.3 138 1018.5 138.4 1022.6 139.2C1026.7 140 1030.5 141.5 1033.8 143.7C1037.1 145.9 1039.8 149 1041.9 152.9C1044 156.9 1045 162 1045 168.4V218.5C1045 223.1 1047.3 225.5 1051.8 225.5C1053.1 225.5 1054.4 225.3 1055.5 224.8V234.5C1054.2 234.7 1053 234.9 1051.9 235C1050.9 235.1 1049.5 235.2 1048 235.2C1045.1 235.2 1042.7 234.8 1041 234C1039.2 233.2 1037.9 232.1 1036.9 230.6C1035.9 229.1 1035.3 227.4 1035 225.4C1034.7 223.4 1034.5 221.2 1034.5 218.7H1034.1C1032 221.8 1029.9 224.5 1027.8 226.8C1025.7 229.2 1023.3 231.2 1020.7 232.7C1018.1 234.3 1015.1 235.5 1011.7 236.4C1008.3 237.3 1004.3 237.7 999.7 237.7C995.3 237.7 991.2 237.2 987.3 236.1C983.5 235.1 980.1 233.4 977.2 231.2C974.3 228.9 972.1 226.1 970.4 222.6C968.8 219.1 967.9 215 967.9 210.2C967.9 203.6 969.4 198.5 972.3 194.7C975.2 191 979.1 188.1 983.9 186.2C988.7 184.2 994.1 182.9 1000.2 182.1C1006.2 181.3 1012.4 180.5 1018.6 179.8C1021 179.6 1023.2 179.3 1025 178.9C1026.8 178.5 1028.4 177.9 1029.6 177C1030.8 176.1 1031.8 174.8 1032.4 173.2C1033.1 171.6 1033.4 169.5 1033.4 167C1033.4 163.1 1032.8 159.9 1031.5 157.4C1030.2 154.9 1028.4 152.9 1026.2 151.5C1023.9 150 1021.3 149 1018.3 148.5C1015.3 148 1012.1 147.7 1008.7 147.7C1001.4 147.7 995.4 149.4 990.8 152.9C986.2 156.4 983.7 162 983.5 169.6H972C972.3 164.2 973.4 159.5 975.4 155.4ZM1033 183.6C1032.3 184.9 1030.9 185.9 1028.8 186.5C1026.7 187.1 1024.9 187.5 1023.3 187.8C1018.4 188.7 1013.4 189.4 1008.2 190.1C1003 190.8 998.3 191.8 994 193.1C989.7 194.4 986.2 196.4 983.5 198.9C980.8 201.4 979.4 205 979.4 209.6C979.4 212.5 980 215.1 981.1 217.4C982.3 219.7 983.8 221.6 985.8 223.3C987.8 224.9 990 226.2 992.6 227.1C995.2 228 997.8 228.4 1000.5 228.4C1004.9 228.4 1009.1 227.7 1013.1 226.4C1017.1 225.1 1020.6 223.1 1023.6 220.5C1026.6 217.9 1029 214.8 1030.7 211.2C1032.5 207.5 1033.4 203.4 1033.4 198.8V183.8H1033V183.6Z" fill="black"/>
<path d="M1074.2 104.6V235.3H1062.7V104.6H1074.2Z" fill="black"/>
<path d="M1102.6 104.6V235.3H1091V104.6H1102.6Z" fill="black"/>
<path d="M254.7 291.3H107.5C84 291.3 65 272.2 65 248.7V101.5C65 78 84 59 107.5 59H254.7C278.2 59 297.2 78 297.2 101.5V248.7C297.3 272.2 278.2 291.3 254.7 291.3Z" fill="url(#paint0_linear)"/>
<path d="M181.1 267.8C231.965 267.8 273.2 226.565 273.2 175.7C273.2 124.835 231.965 83.6 181.1 83.6C130.235 83.6 89 124.835 89 175.7C89 226.565 130.235 267.8 181.1 267.8Z" fill="#D2D2D2"/>
<path d="M181.1 211.2C200.54 211.2 216.3 195.44 216.3 176C216.3 156.56 200.54 140.8 181.1 140.8C161.66 140.8 145.9 156.56 145.9 176C145.9 195.44 161.66 211.2 181.1 211.2Z" fill="#FF0101"/>
<defs>
<linearGradient id="paint0_linear" x1="181.134" y1="291.269" x2="181.134" y2="59" gradientUnits="userSpaceOnUse">
<stop stop-color="#050505"/>
<stop offset="1" stop-color="#292929"/>
</linearGradient>
</defs>
</svg>
